<svg width="54" height="54" viewBox="0 0 54 54" fill="none" xmlns="http://www.w3.org/2000/svg">
<path d="M40.8375 3.03749L31.8375 12.0375C31.6125 12.2625 31.5 12.5325 31.5 12.8475V31.23C31.5 32.1975 32.6475 32.715 33.3675 32.0625L42.3675 23.9625C42.615 23.76 42.75 23.445 42.75 23.13V3.84749C42.75 2.83499 41.535 2.33999 40.8375 3.03749ZM50.5575 11.7C49.5 11.16 48.3975 10.71 47.25 10.3275V37.395C44.685 36.4725 42.0525 36 39.375 36C35.1 36 30.87 37.215 27 39.555V12.33C23.355 10.2375 19.1475 8.99999 14.625 8.99999C10.5975 8.99999 6.795 9.98999 3.4425 11.7C2.7 12.06 2.25 12.8475 2.25 13.68V40.86C2.25 42.57 4.0725 43.6275 5.58 42.8175C8.3025 41.4 11.3625 40.5 14.625 40.5C19.2825 40.5 23.58 42.345 27 45C30.42 42.345 34.7175 40.5 39.375 40.5C42.6375 40.5 45.6975 41.4 48.42 42.84C49.9275 43.65 51.75 42.5925 51.75 40.8825V13.68C51.75 12.8475 51.3 12.06 50.5575 11.7Z" fill="#333333"/>
</svg>
