<svg width="54" height="54" viewBox="0 0 50 50" fill="none" xmlns="http://www.w3.org/2000/svg">
<path d="M12.1408 12.1408H22.9167C24.0625 12.1408 25 10.6286 25 9.48276C25 8.33693 24.0625 6.25 22.9167 6.25H10.4167C8.125 6.25 6.25 8.125 6.25 10.4167V39.5833C6.25 41.875 8.125 43.75 10.4167 43.75H22.9167C24.0625 43.75 25 42.0941 25 40.9483C25 39.8024 24.0625 37.8592 22.9167 37.8592H12.1408V12.1408Z" fill="#333333"/>
<path d="M44.745 24.2708L37.2083 17.5963C36.5417 16.9296 34.5546 17.3879 34.5546 18.3254V22.0546H20.8333C19.6875 22.0546 18.75 23.8542 18.75 25C18.75 26.1458 19.6875 27.9454 20.8333 27.9454H34.5546V31.6746C34.5546 32.6121 36.5417 33.0704 37.1875 32.4037L44.7241 25.7292C45.1408 25.3333 45.1408 24.6667 44.745 24.2708Z" fill="#333333"/>
</svg>
